# xmcd
#
# Track frame offsets:
#	150
#	14465
#	32812
#	46287
#	64849
#	79637
#	99587
#	111364
#	128472
#	146422
#	162172
#	177914
#	197657
#	210294
#	227224
#	243264
#
# Disc length: 3465
#
# Revision: 1
# Processed by: cddbd v1.5.1PL0 Copyright (c) Steve Scherf et al.
# Submitted via: audiograbber 1.83.01
# Normalized: r0:TDELIM( - )
#
DISCID=ce0d8710
DTITLE=Monster Hits - MH001
DYEAR=1900
DGENRE=Country Female
TTITLE0=Twain, Shania - 1 - No One Needs to Know
TTITLE1=Dixie Chicks - 2 - Ready To Run
TTITLE2=McBride, Martina - 3 - I Love You
TTITLE3=Hill, Faith - 4 - Breathe
TTITLE4=Hill, Faith - 5 - This Kiss
TTITLE5=Dixie Chicks - 6 - Goodbye Earl
TTITLE6=McBride, Martina - 7 - My Baby Loves Me
TTITLE7=Twain, Shania - 8 - That Don't Impress Me Much
TTITLE8=McEntire, Reba - 9 - Is There Life Out There
TTITLE9=McBride, Martina - 10 - Independence Day
TTITLE10=Carpenter, Mary-Chapin - 11 - Passionate Kisses
TTITLE11=Yearwood, Trisha - 12 - How Do I Live
TTITLE12=Rimes, LeAnn - 13 - Blue
TTITLE13=Dixie Chicks - 14 - Wide Open Spaces
TTITLE14=Yearwood, Trisha - 15 - Thinkin' About You
TTITLE15=Twain, Shania - 16 - You're Still the One
EXTD=
EXTT0=
EXTT1=
EXTT2=
EXTT3=
EXTT4=
EXTT5=
EXTT6=
EXTT7=
EXTT8=
EXTT9=
EXTT10=
EXTT11=
EXTT12=
EXTT13=
EXTT14=
EXTT15=
PLAYORDER=
